<svg xmlns="http://www.w3.org/2000/svg" viewBox="0 0 24 24" width="24" height="24" fill="#006BFF"><path d="M19.655 14.262c-.207.556-.553 1.058-1.025 1.49a4.592 4.592 0 0 1-1.633.987 5.752 5.752 0 0 1-2.043.359H12.5a5.772 5.772 0 0 1-2.043-.36 4.627 4.627 0 0 1-1.633-.986 4.37 4.37 0 0 1-1.025-1.49c-.234-.561-.352-1.202-.352-1.907v-.71c0-.705.118-1.347.352-1.907a4.37 4.37 0 0 1 1.025-1.49 4.627 4.627 0 0 1 1.633-.987A5.772 5.772 0 0 1 12.5 6.902h2.454c.72 0 1.402.12 2.043.36.641.24 1.182.569 1.633.986.472.432.818.934 1.025 1.49.234.56.352 1.202.352 1.908v.71c0 .704-.118 1.345-.352 1.906z"/></svg>
