<svg width="512" height="512" viewBox="0 0 512 512" fill="none" xmlns="http://www.w3.org/2000/svg">
<rect width="512" height="512" rx="85.3333" fill="#8039DF"/>
<rect x="53.4446" y="53.4446" width="21.3333" height="21.3333" fill="#3E0075"/>
<rect x="437.333" y="53.3333" width="21.3333" height="21.3333" fill="#3E0075"/>
<rect x="437.333" y="437.333" width="21.3333" height="21.3333" fill="#3E0075"/>
<rect x="53.3333" y="437.333" width="21.3333" height="21.3333" fill="#3E0075"/>
<path d="M427.2 229.814H328.146C322.677 229.814 318.423 235.887 320.246 240.745L343.946 302.075C345.162 304.504 342.731 307.54 339.693 307.54L309.308 305.719C308.093 305.719 306.877 306.326 305.662 307.54L282.57 340.938C281.354 342.76 278.924 343.367 276.493 342.153L241.247 318.471C240.031 317.256 238.208 317.256 236.385 318.471L187.77 351.261C184.732 353.69 180.478 350.654 181.693 347.011L195.67 298.432C196.278 296.61 195.062 294.181 193.239 293.574L167.716 283.251C165.285 282.037 164.07 279 165.893 277.179L188.378 249.246C189.593 248.031 189.593 245.602 188.378 244.388L169.539 217.062C167.716 214.634 169.539 210.99 172.578 210.99L202.355 208.561C204.785 208.561 206.001 206.74 206.001 204.311L203.57 163.019C203.57 159.982 206.608 158.161 209.039 158.768L245.501 173.949C247.324 174.556 249.147 173.949 250.362 172.734L275.885 144.802C277.708 142.373 281.354 142.98 282.57 146.016L297.762 184.879C299.585 189.737 305.662 191.559 309.916 188.522L369.469 144.194C376.154 139.337 371.9 128.406 363.392 129.621L325.108 134.479C323.285 134.479 321.462 133.871 320.854 132.05L300.193 79.2203C297.762 73.7552 291.077 72.5408 286.823 76.7914L241.854 125.37C240.639 126.585 238.816 127.192 236.993 126.585L178.047 101.688C172.578 99.2591 167.109 102.902 166.501 108.975L164.07 169.698C164.07 172.127 162.247 173.342 160.424 173.342L106.339 176.985C100.263 177.592 96.6164 184.272 100.263 189.737L136.116 242.566C137.332 243.781 137.332 246.21 136.116 247.424L99.6549 289.323C96.6164 292.36 98.4395 299.039 103.301 300.861L145.232 319.078C147.055 319.685 148.27 322.114 147.662 323.936L120.924 427.773C119.101 435.06 127.609 440.525 133.686 436.274L233.954 364.62C235.17 363.406 236.993 363.406 238.816 364.62L284.393 396.804C288.039 399.233 293.508 398.626 295.939 394.375L324.5 350.654C325.108 349.44 326.931 348.832 328.146 348.832L396.208 357.334C401.677 357.941 407.146 353.69 405.323 348.225L376.762 274.75C376.154 272.928 376.762 270.499 379.192 269.285L430.846 244.995C438.138 241.352 435.708 229.814 427.2 229.814Z" fill="white"/>
</svg>
